HIERARCHY
ROOT Hips
{
	OFFSET	0.00	0.00	0.00
	CHANNELS 6 Xposition Yposition Zposition Zrotation Xrotation Yrotation
	JOINT LeftUpLeg
	{
		OFFSET	 0.126116	-0.014019	-0.065224
		CHANNELS 3 Zrotation Xrotation Yrotation
		JOINT LeftLeg
		{
			OFFSET	 0.000000	 0.000000	 0.569914
			CHANNELS 3 Zrotation Xrotation Yrotation
			JOINT LeftFoot
			{
				OFFSET	 0.000000	 0.000000	 0.544423
				CHANNELS 3 Zrotation Xrotation Yrotation
				JOINT LeftToeBase
				{
					OFFSET	 0.000000	 0.000000	 0.207117
					CHANNELS 3 Zrotation Xrotation Yrotation
					End Site
					{
						OFFSET	 0.000000	 0.000000	 0.207117
					}
				}
			}
		}
	}
	JOINT RightUpLeg
	{
		OFFSET	-0.124023	-0.008373	-0.065224
		CHANNELS 3 Zrotation Xrotation Yrotation
		JOINT RightLeg
		{
			OFFSET	 0.000000	 0.000000	 0.570047
			CHANNELS 3 Zrotation Xrotation Yrotation
			JOINT RightFoot
			{
				OFFSET	 0.000000	 0.000000	 0.544354
				CHANNELS 3 Zrotation Xrotation Yrotation
				JOINT RightToeBase
				{
					OFFSET	 0.000000	 0.000000	 0.207540
					CHANNELS 3 Zrotation Xrotation Yrotation
					End Site
					{
						OFFSET	 0.000000	 0.000000	 0.207540
					}
				}
			}
		}
	}
	JOINT Spine
	{
		OFFSET	 0.000184	-0.007763	 0.117403
		CHANNELS 3 Zrotation Xrotation Yrotation
		JOINT Spine1
		{
			OFFSET	 0.000000	 0.000000	 0.137269
			CHANNELS 3 Zrotation Xrotation Yrotation
			JOINT Spine2
			{
				OFFSET	 0.000000	 0.000000	 0.156879
				CHANNELS 3 Zrotation Xrotation Yrotation
				JOINT LeftShoulder
				{
					OFFSET	 0.080501	-0.002496	 0.160144
					CHANNELS 3 Zrotation Xrotation Yrotation
					JOINT LeftArm
					{
						OFFSET	 0.000000	 0.000000	 0.164363
						CHANNELS 3 Zrotation Xrotation Yrotation
						JOINT LeftForeArm
						{
							OFFSET	 0.000000	 0.000000	 0.364576
							CHANNELS 3 Zrotation Xrotation Yrotation
							JOINT LeftHand
							{
								OFFSET	 0.000000	 0.000000	 0.360812
								CHANNELS 3 Zrotation Xrotation Yrotation
								JOINT LeftHandIndex1
								{
									OFFSET	 0.000000	 0.000000	 0.086006
									CHANNELS 3 Zrotation Xrotation Yrotation
									JOINT LeftHandIndex2
									{
										OFFSET	 0.000000	 0.000000	 0.047236
										CHANNELS 3 Zrotation Xrotation Yrotation
										JOINT LeftHandIndex3
										{
											OFFSET	-0.004284	-0.000551	 0.038166
											CHANNELS 3 Zrotation Xrotation Yrotation
											End Site
											{
												OFFSET	-0.004284	-0.000551	 0.038166
											}
										}
									}
								}
							}
						}
					}
				}
				JOINT Neck
				{
					OFFSET	 0.000000	 0.000000	 0.176489
					CHANNELS 3 Zrotation Xrotation Yrotation
					JOINT Head
					{
						OFFSET	 0.000000	-0.001747	 0.077940
						CHANNELS 3 Zrotation Xrotation Yrotation
						End Site
						{
							OFFSET	 0.000000	-0.001747	 0.077940
						}
					}
				}
				JOINT RightShoulder
				{
					OFFSET	-0.080363	 0.000306	 0.159706
					CHANNELS 3 Zrotation Xrotation Yrotation
					JOINT RightArm
					{
						OFFSET	 0.000000	 0.000000	 0.164196
						CHANNELS 3 Zrotation Xrotation Yrotation
						JOINT RightForeArm
						{
							OFFSET	 0.000000	 0.000000	 0.365611
							CHANNELS 3 Zrotation Xrotation Yrotation
							JOINT RightHand
							{
								OFFSET	 0.000000	 0.000000	 0.360648
								CHANNELS 3 Zrotation Xrotation Yrotation
								JOINT RightHandIndex1
								{
									OFFSET	 0.000000	 0.000000	 0.069977
									CHANNELS 3 Zrotation Xrotation Yrotation
									JOINT RightHandIndex2
									{
										OFFSET	 0.000000	 0.000000	 0.052305
										CHANNELS 3 Zrotation Xrotation Yrotation
										JOINT RightHandIndex3
										{
											OFFSET	 0.009002	-0.000782	 0.042196
											CHANNELS 3 Zrotation Xrotation Yrotation
											End Site
											{
												OFFSET	 0.009002	-0.000782	 0.042196
											}
										}
									}
								}
							}
						}
					}
				}
			}
		}
	}
}
MOTION
Frames:    7
Frame Time: 0.03333334
-8.330506	-21.208070	-0.291197	-51.339970	 1.314757	 0.510403	 2.201970	-33.844570	 172.376400	-5.848068	-67.782510	-6.301590	 176.984600	 86.995990	-179.787000	-2.330950	 36.766750	-0.192119	-0.104536	-35.385570	-177.499100	 1.677048	-72.205080	 4.326357	-177.735800	 85.564250	 179.406800	 2.404981	 21.314810	-0.146879	 0.731732	 13.013240	 1.129369	 1.697555	 5.403708	-1.966849	 2.376119	 2.074747	 0.114248	-134.158400	 89.513420	-134.248200	 48.832590	 61.200680	-77.150530	-13.175010	-2.297761	-19.778140	 2.226008	 10.786620	-5.452940	-3.812334	 37.924440	-2.927599	-2.450526	 36.184240	 0.754587	-1.378229	 35.397820	-2.634230	 1.620267	 2.454997	-3.126104	 1.249986	 7.098223	 2.892972	 94.026580	 85.963040	 171.372000	-54.103900	 70.557420	 73.338960	-6.495008	-12.340920	 20.967150	-29.587320	 9.678233	 9.663840	 6.437017	 35.671460	-0.771858	 2.830251	 35.756010	-7.813440	-2.350882	 35.473990	 5.254307
-8.327815	-21.208100	-0.281561	-52.019310	 2.580493	 0.369154	 2.421452	-34.473510	 172.555700	-5.127757	-66.397200	-5.345951	 176.339700	 87.555040	-178.895600	-2.341531	 35.542690	-0.161991	 0.307966	-35.933690	-177.553300	 1.451641	-70.255460	 4.334601	-177.167700	 85.963860	 179.001800	 2.405979	 20.531490	-0.162531	 0.624551	 13.018820	 1.066636	 1.619514	 5.230998	-1.929873	 2.402639	 1.909881	 0.118975	-127.481400	 89.443980	-140.934200	 47.347020	 61.154820	-76.170080	-13.124260	-2.365799	-19.130350	 2.457509	 9.722566	-5.431173	-3.812334	 37.924440	-2.927599	-2.450526	 36.184240	 0.754587	-1.378229	 35.397820	-2.634230	 1.756086	 2.289202	-3.076171	 1.347513	 6.949075	 3.337432	 94.199230	 86.006200	 171.095600	-54.029070	 70.846640	 73.103750	-6.555614	-12.205430	 20.527400	-29.610600	 8.636013	 9.630501	 6.437017	 35.671460	-0.771858	 2.830251	 35.756010	-7.813440	-2.350882	 35.473990	 5.254307
-8.325505	-21.208210	-0.274039	-52.566380	 3.576499	 0.194632	 2.615058	-34.955960	 172.774700	-4.668615	-65.333310	-4.693117	 175.497300	 88.008550	-177.864700	-2.348603	 34.655760	-0.140627	 0.659050	-36.439430	-177.479600	 1.124589	-68.962690	 4.220953	-176.527400	 86.361480	 178.424000	 2.406358	 20.183470	-0.169462	 0.545321	 13.011310	 1.060857	 1.559103	 5.109373	-1.877805	 2.423133	 1.786929	 0.122584	-123.962700	 89.398020	-144.473300	 46.188970	 61.067610	-75.453610	-13.197900	-2.369555	-18.656980	 2.479043	 8.736729	-5.414295	-3.812334	 37.924440	-2.927599	-2.450526	 36.184240	 0.754587	-1.378229	 35.397820	-2.634230	 1.861263	 2.176575	-3.014667	 1.427471	 6.825861	 3.711641	 94.304220	 86.032120	 170.929600	-54.023200	 71.122330	 72.880040	-6.482840	-12.038630	 20.181570	-29.477170	 7.666731	 9.603395	 6.437017	 35.671460	-0.771858	 2.830251	 35.756010	-7.813440	-2.350882	 35.473990	 5.254307
-8.323094	-21.208640	-0.266296	-53.210850	 4.562198	-0.032082	 2.896206	-35.335600	 173.056600	-4.363337	-64.216420	-4.128283	 173.974600	 88.493250	-176.171500	-2.355342	 33.751200	-0.119194	 1.082873	-37.033680	-177.313400	 0.510690	-67.922450	 3.899156	-175.365500	 86.971080	 177.206800	 2.406643	 19.870690	-0.175673	 0.506127	 13.063170	 1.105561	 1.531263	 5.012043	-1.812288	 2.445560	 1.656845	 0.126490	-121.357600	 89.356840	-147.094800	 45.006770	 60.947760	-74.850560	-13.393660	-2.340220	-18.172630	 2.383630	 7.529868	-5.396897	-3.812334	 37.924440	-2.927599	-2.450526	 36.184240	 0.754587	-1.378229	 35.397820	-2.634230	 1.984040	 2.066304	-2.943682	 1.505658	 6.683921	 4.099957	 94.389240	 86.054400	 170.798600	-53.987510	 71.446590	 72.571500	-6.478903	-11.866770	 19.757020	-29.392360	 6.478139	 9.573383	 6.437017	 35.671460	-0.771858	 2.830251	 35.756010	-7.813440	-2.350882	 35.473990	 5.254307
-8.321070	-21.209200	-0.259525	-53.853600	 5.346496	-0.260552	 3.247335	-35.540010	 173.359900	-4.250884	-63.194670	-3.707824	 171.337800	 88.933030	-173.404800	-2.360559	 33.001790	-0.101709	 1.475877	-37.580840	-177.121700	-0.245804	-67.059780	 3.430394	-173.834800	 87.570940	 175.530800	 2.406908	 19.550200	-0.182017	 0.506506	 13.235460	 1.198897	 1.535193	 4.986389	-1.746300	 2.460948	 1.555584	 0.129455	-119.777600	 89.325360	-148.673800	 43.965170	 60.847170	-74.468420	-13.544590	-2.339717	-17.713170	 2.370695	 6.245340	-5.380275	-3.812334	 37.924440	-2.927599	-2.450526	 36.184240	 0.754587	-1.378229	 35.397820	-2.634230	 2.104895	 1.965815	-2.888860	 1.565614	 6.584298	 4.411913	 94.451770	 86.073050	 170.706900	-53.885320	 71.765260	 72.221610	-6.548355	-11.705770	 19.291940	-29.376960	 5.212433	 9.544248	 6.437017	 35.671460	-0.771858	 2.830251	 35.756010	-7.813440	-2.350882	 35.473990	 5.254307
-8.319348	-21.209970	-0.253287	-54.471780	 6.050779	-0.480295	 3.655417	-35.611770	 173.668300	-4.201446	-62.172670	-3.313715	 165.439400	 89.352290	-167.373700	-2.364545	 32.396350	-0.087741	 1.776888	-38.055910	-176.834400	-1.063891	-66.190950	 2.835434	-172.066200	 88.076740	 173.547000	 2.407083	 19.299000	-0.186979	 0.497805	 13.475580	 1.320393	 1.521764	 5.008289	-1.672821	 2.453388	 1.474711	 0.130786	-118.757300	 89.305920	-149.703800	 42.972710	 60.802270	-74.298580	-13.561920	-2.409782	-17.202460	 2.593516	 4.746615	-5.362399	-3.812334	 37.924440	-2.927599	-2.450526	 36.184240	 0.754587	-1.378229	 35.397820	-2.634230	 2.209546	 1.875026	-2.849958	 1.615681	 6.513339	 4.626738	 94.510090	 86.093190	 170.627100	-53.697180	 72.124240	 71.780400	-6.680040	-11.524360	 18.726170	-29.418570	 3.736508	 9.513496	 6.437017	 35.671460	-0.771858	 2.830251	 35.756010	-7.813440	-2.350882	 35.473990	 5.254307
-8.318341	-21.210650	-0.248272	-54.879450	 6.611271	-0.618696	 3.995162	-35.661530	 173.888000	-4.108955	-61.317380	-2.944041	 151.247500	 89.659650	-153.037400	-2.367054	 31.999260	-0.078658	 1.893283	-38.276420	-176.675500	-1.708668	-65.386460	 2.284228	-170.296400	 88.435650	 171.562300	 2.407124	 19.236680	-0.188211	 0.431103	 13.676950	 1.382571	 1.450685	 5.067128	-1.622203	 2.410512	 1.439598	 0.129235	-118.267200	 89.300580	-150.225800	 42.195120	 60.860270	-74.379620	-13.579700	-2.500712	-16.704940	 2.909516	 3.281233	-5.347266	-3.812334	 37.924440	-2.927599	-2.450526	 36.184240	 0.754587	-1.378229	 35.397820	-2.634230	 2.261899	 1.861453	-2.798354	 1.650073	 6.453505	 4.675898	 94.567830	 86.115310	 170.552500	-53.398740	 72.488750	 71.228340	-6.830494	-11.338030	 18.143680	-29.495760	 2.293958	 9.488029	 6.437017	 35.671460	-0.771858	 2.830251	 35.756010	-7.813440	-2.350882	 35.473990	 5.254307
